<svg xmlns="http://www.w3.org/2000/svg" viewBox="0 0 96.43001 97.68001"><defs><style>.cls-1{fill:#141e8c;}.cls-2{fill:#fff;}</style></defs><title>zeiss-logo</title><g id="Ebene_2" data-name="Ebene 2"><g id="Ebene_1-2" data-name="Ebene 1"><path class="cls-1" d="M80.32,64.17a78.35838,78.35838,0,0,0-64.17,0V0H80.32Z"/><path class="cls-2" d="M23.76,19.58a3.28735,3.28735,0,0,0-3.26,3.06H19.06V18.11H30.29s.09,3.5-3.23,7.21c0,0-3.16,3.67-3.24,5.28h1.82c2.61,0,2.88-3.06,2.88-3.06h1.5v4.54H18.54s-.42-3.44,3.56-7.61c0,0,2.45-2.74,3.02-4.9Z"/><path class="cls-2" d="M52.36,32.07V30.59h-.34a1.11816,1.11816,0,0,1-1.12-1.12V20.71a1.11816,1.11816,0,0,1,1.12-1.12h.34V18.11H44.91v1.48h.34a1.12036,1.12036,0,0,1,1.13,1.12v8.76a1.12036,1.12036,0,0,1-1.13,1.12h-.34v1.48Z"/><path class="cls-2" d="M43.37,32.08V27.54h-1.5s-.28,3.06-2.89,3.06h-1.5V25.84h.53a1.12251,1.12251,0,0,1,1.13,1.13v.56h1.48V22.64H39.14v.57a1.12251,1.12251,0,0,1-1.13,1.13h-.53V19.58h1.5c2.61,0,2.89,3.06,2.89,3.06h1.5V18.1H31.54v1.49h.34A1.11816,1.11816,0,0,1,33,20.71v8.76a1.11816,1.11816,0,0,1-1.12,1.12h-.34v1.48Z"/><path class="cls-2" d="M60.18,19.58a3.26451,3.26451,0,0,1,3.25,3.06h1.45V18.11H54.15s-1.7,2.22,2.74,7.21c0,0,3.15,3.67,3.23,5.28H58.31c-2.61,0-2.89-3.06-2.89-3.06H53.91v4.54H64.73s1.97-2.12-2.9-7.61c0,0-2.55-2.62-3.02-4.9Z"/><path class="cls-2" d="M72.73,19.58a3.2743,3.2743,0,0,1,3.25,3.06h1.44V18.11H66.7s-1.7,2.22,2.74,7.21c0,0,3.15,3.67,3.23,5.28H70.86c-2.61,0-2.89-3.06-2.89-3.06h-1.5v4.54H77.29s1.96-2.12-2.9-7.61c0,0-2.55-2.62-3.01-4.9Z"/><path d="M.06,92.46a4.71764,4.71764,0,0,0,1.15.45,5.34747,5.34747,0,0,0,1.24.14,2.743,2.743,0,0,0,.7-.09,1.65862,1.65862,0,0,0,.61-.3,1.41774,1.41774,0,0,0,.43-.53,1.74041,1.74041,0,0,0,.16-.79,1.40563,1.40563,0,0,0-.14-.64,1.91713,1.91713,0,0,0-.37-.49,2.49594,2.49594,0,0,0-.54-.39c-.21-.11-.43-.23-.65-.34l-.77-.39a5.11064,5.11064,0,0,1-.68-.41,2.3623,2.3623,0,0,1-.56-.53,2.61291,2.61291,0,0,1-.38-.7,3.09931,3.09931,0,0,1,.15-2.23,2.57452,2.57452,0,0,1,.76-.9,3.2047,3.2047,0,0,1,1.05-.51,4.21417,4.21417,0,0,1,1.16-.16,7.25958,7.25958,0,0,1,2.24.33l-.09,1.37a4.32949,4.32949,0,0,0-1.02-.32,5.48122,5.48122,0,0,0-1.05-.1,2.71941,2.71941,0,0,0-.63.08,1.64449,1.64449,0,0,0-.57.26,1.36839,1.36839,0,0,0-.42.47,1.42148,1.42148,0,0,0-.16.72,1.36309,1.36309,0,0,0,.11.56,1.40071,1.40071,0,0,0,.3.42,2.17758,2.17758,0,0,0,.45.33c.17.1.34.19.52.29l.82.39a8.87988,8.87988,0,0,1,.82.46,3.0113,3.0113,0,0,1,.66.57,2.50722,2.50722,0,0,1,.45.76,2.95308,2.95308,0,0,1,.16,1.04,3.18844,3.18844,0,0,1-.27,1.37,2.695,2.695,0,0,1-.73.96,3.13182,3.13182,0,0,1-1.09.56,4.81958,4.81958,0,0,1-1.34.19,7.849,7.849,0,0,1-1.24-.1A7.47648,7.47648,0,0,1,0,93.94Z"/><path d="M9.05,90.61a3.11382,3.11382,0,0,0,.16,1.02,2.27852,2.27852,0,0,0,1.25,1.4,2.6014,2.6014,0,0,0,1.08.21,4.59119,4.59119,0,0,0,1.03-.12,3.8788,3.8788,0,0,0,.97-.36l.09,1.15a4.9878,4.9878,0,0,1-1.1.32,6.78043,6.78043,0,0,1-1.2.1,4.45595,4.45595,0,0,1-1.65-.29,3.29581,3.29581,0,0,1-1.19-.84,3.53582,3.53582,0,0,1-.72-1.29,5.41122,5.41122,0,0,1-.24-1.66,5.08475,5.08475,0,0,1,.23-1.52,3.904,3.904,0,0,1,.67-1.28,3.26111,3.26111,0,0,1,1.07-.88,3.04494,3.04494,0,0,1,1.43-.33,3.26356,3.26356,0,0,1,1.47.3,2.57679,2.57679,0,0,1,.96.83,3.46346,3.46346,0,0,1,.52,1.24,7.50288,7.50288,0,0,1,.16,1.54v.47H9.05Zm3.55-.96a4.90935,4.90935,0,0,0-.07-.86,2.37073,2.37073,0,0,0-.26-.75,1.49282,1.49282,0,0,0-.5-.53,1.55515,1.55515,0,0,0-.82-.2,1.53854,1.53854,0,0,0-.82.21,2.02624,2.02624,0,0,0-.59.54,2.3697,2.3697,0,0,0-.36.75,3.49394,3.49394,0,0,0-.13.84Z"/><path d="M16.95,90.61a3.11408,3.11408,0,0,0,.16,1.02,2.2786,2.2786,0,0,0,1.25,1.4,2.6014,2.6014,0,0,0,1.08.21,4.59119,4.59119,0,0,0,1.03-.12,3.73818,3.73818,0,0,0,.97-.36l.09,1.15a4.9878,4.9878,0,0,1-1.1.32,6.78043,6.78043,0,0,1-1.2.1,4.45595,4.45595,0,0,1-1.65-.29,3.29581,3.29581,0,0,1-1.19-.84,3.53582,3.53582,0,0,1-.72-1.29,5.41122,5.41122,0,0,1-.24-1.66,5.08475,5.08475,0,0,1,.23-1.52,3.90415,3.90415,0,0,1,.67-1.28,3.26131,3.26131,0,0,1,1.07-.88,3.045,3.045,0,0,1,1.43-.33,3.2636,3.2636,0,0,1,1.47.3,2.57685,2.57685,0,0,1,.96.83,3.4631,3.4631,0,0,1,.52,1.24,7.50288,7.50288,0,0,1,.16,1.54v.47H16.95Zm3.54-.96a4.90935,4.90935,0,0,0-.07-.86,2.371,2.371,0,0,0-.26-.75,1.49282,1.49282,0,0,0-.5-.53,1.55512,1.55512,0,0,0-.82-.2,1.53854,1.53854,0,0,0-.82.21,2.02624,2.02624,0,0,0-.59.54,2.3697,2.3697,0,0,0-.36.75,3.49394,3.49394,0,0,0-.13.84Z"/><path d="M23.74,84.79V83.28h1.48v1.51Zm0,9.36V86.39h1.48v7.77H23.74Z"/><path d="M27.47,94.15V88.17c0-.3-.01-.6-.02-.89s-.03-.59-.06-.89h1.39l.04,1.34a2.54368,2.54368,0,0,1,2.4-1.49,2.72946,2.72946,0,0,1,1.16.22,1.95683,1.95683,0,0,1,.77.61,2.63941,2.63941,0,0,1,.42.96,5.2172,5.2172,0,0,1,.13,1.23v4.91H32.2V89.59a6.83735,6.83735,0,0,0-.05-.79,1.75349,1.75349,0,0,0-.21-.68,1.17044,1.17044,0,0,0-.44-.47,1.425,1.425,0,0,0-.76-.18,1.56158,1.56158,0,0,0-.87.22,1.69629,1.69629,0,0,0-.56.57,2.4938,2.4938,0,0,0-.3.79,4.53013,4.53013,0,0,0-.09.91v4.22H27.47Z"/><path d="M36.24,95.94a4.66444,4.66444,0,0,0,1.06.41,4.4819,4.4819,0,0,0,1.15.15,2.84218,2.84218,0,0,0,1.1-.2,1.887,1.887,0,0,0,.76-.57,2.26479,2.26479,0,0,0,.43-.88,4.43892,4.43892,0,0,0,.13-1.13V92.8a2.4615,2.4615,0,0,1-.97,1,2.85128,2.85128,0,0,1-2.72.01,2.93172,2.93172,0,0,1-.93-.89,3.89889,3.89889,0,0,1-.53-1.25,6.20834,6.20834,0,0,1-.16-1.43,6.69607,6.69607,0,0,1,.16-1.5,3.97183,3.97183,0,0,1,.53-1.28,2.854,2.854,0,0,1,.94-.89,2.76242,2.76242,0,0,1,1.4-.33,2.71035,2.71035,0,0,1,1.37.35,2.43371,2.43371,0,0,1,.96,1.1v-1.3h1.42v7.33a4.34388,4.34388,0,0,1-.9,2.94,3.51474,3.51474,0,0,1-2.77,1.02,7.68543,7.68543,0,0,1-1.27-.11,9.12987,9.12987,0,0,1-1.25-.31Zm1.29-3.87a1.92194,1.92194,0,0,0,.56.64,1.75085,1.75085,0,0,0,1.82-.01,2.04439,2.04439,0,0,0,.59-.65,3.00662,3.00662,0,0,0,.32-.87,4.9742,4.9742,0,0,0,.1-.92,5.3628,5.3628,0,0,0-.09-.96,3.121,3.121,0,0,0-.31-.92,1.85744,1.85744,0,0,0-.59-.68,1.45346,1.45346,0,0,0-.9-.26,1.585,1.585,0,0,0-.94.26,1.77657,1.77657,0,0,0-.57.67,2.912,2.912,0,0,0-.28.92,6.78163,6.78163,0,0,0-.07.99,6.04341,6.04341,0,0,0,.08.93A2.63214,2.63214,0,0,0,37.53,92.07Z"/><path d="M49.29,94.15V82.95h1.48v4.72a2.10067,2.10067,0,0,1,.92-1.07,2.64176,2.64176,0,0,1,1.35-.37,2.81432,2.81432,0,0,1,1.42.33,2.67379,2.67379,0,0,1,.94.89,3.74817,3.74817,0,0,1,.52,1.28,7.33427,7.33427,0,0,1,.16,1.5,6.84945,6.84945,0,0,1-.16,1.51,4.085,4.085,0,0,1-.53,1.3,2.88014,2.88014,0,0,1-.95.92,2.7418,2.7418,0,0,1-1.42.35,2.61906,2.61906,0,0,1-1.37-.36,2.54274,2.54274,0,0,1-.96-1.1l-.03,1.29H49.29Zm1.84-2a2.10277,2.10277,0,0,0,.59.7,1.40219,1.40219,0,0,0,.9.28,1.52941,1.52941,0,0,0,.93-.27,1.92278,1.92278,0,0,0,.57-.69,3.37268,3.37268,0,0,0,.29-.93,6.82532,6.82532,0,0,0,.08-.99,6.55375,6.55375,0,0,0-.07-.98,3.018,3.018,0,0,0-.28-.91,1.93292,1.93292,0,0,0-.56-.67,1.574,1.574,0,0,0-.93-.26,1.52042,1.52042,0,0,0-.9.26,1.95446,1.95446,0,0,0-.59.68,2.97768,2.97768,0,0,0-.32.91,5.40022,5.40022,0,0,0-.1.96,5.559,5.559,0,0,0,.09.97A3.23324,3.23324,0,0,0,51.13,92.15Z"/><path d="M59.07,90.61a3.11408,3.11408,0,0,0,.16,1.02,2.2786,2.2786,0,0,0,1.25,1.4,2.60144,2.60144,0,0,0,1.08.21,4.5911,4.5911,0,0,0,1.03-.12,3.73838,3.73838,0,0,0,.97-.36l.09,1.15a4.9878,4.9878,0,0,1-1.1.32,6.7804,6.7804,0,0,1-1.2.1,4.456,4.456,0,0,1-1.65-.29,3.10216,3.10216,0,0,1-1.19-.84,3.53582,3.53582,0,0,1-.72-1.29,5.41122,5.41122,0,0,1-.24-1.66,5.08443,5.08443,0,0,1,.23-1.52,3.904,3.904,0,0,1,.67-1.28,3.26131,3.26131,0,0,1,1.07-.88,3.045,3.045,0,0,1,1.43-.33,3.2636,3.2636,0,0,1,1.47.3,2.57685,2.57685,0,0,1,.96.83,3.46328,3.46328,0,0,1,.52,1.24,7.50287,7.50287,0,0,1,.16,1.54v.47H59.07Zm3.55-.96a4.90935,4.90935,0,0,0-.07-.86,2.371,2.371,0,0,0-.26-.75,1.49282,1.49282,0,0,0-.5-.53,1.5551,1.5551,0,0,0-.82-.2,1.53857,1.53857,0,0,0-.82.21,2.02608,2.02608,0,0,0-.59.54,2.36949,2.36949,0,0,0-.36.75,3.49344,3.49344,0,0,0-.13.84Z"/><path d="M65.24,96.37a2.58249,2.58249,0,0,0,.73.11.9809.9809,0,0,0,.85-.39,3.99472,3.99472,0,0,0,.53-1.18l.15-.48-2.66-8.04h1.62l1.81,6.38,1.78-6.38h1.51L68.73,95.2c-.1.3-.21.6-.34.89a4.20537,4.20537,0,0,1-.47.8,2.10946,2.10946,0,0,1-.69.57,2.01282,2.01282,0,0,1-.99.22,4.91937,4.91937,0,0,1-1.08-.11Z"/><path d="M74.39,94.03a3.23207,3.23207,0,0,1-1.55-1.46,5.2999,5.2999,0,0,1-.27-3.95,3.87516,3.87516,0,0,1,.73-1.27,3.27038,3.27038,0,0,1,1.15-.82,3.66746,3.66746,0,0,1,1.51-.3,4.05339,4.05339,0,0,1,1.56.29,3.15886,3.15886,0,0,1,1.15.81,3.33549,3.33549,0,0,1,.7,1.27,5.391,5.391,0,0,1,.24,1.65,5.30643,5.30643,0,0,1-.24,1.63,3.78612,3.78612,0,0,1-.7,1.3,3.14051,3.14051,0,0,1-1.15.85,3.84184,3.84184,0,0,1-1.56.3A3.99461,3.99461,0,0,1,74.39,94.03Zm-.01-1.8a2.12411,2.12411,0,0,0,.64.66,1.84731,1.84731,0,0,0,1.89,0,2.124,2.124,0,0,0,.64-.66,2.9954,2.9954,0,0,0,.36-.92,5.37094,5.37094,0,0,0,.11-1.06,5.03882,5.03882,0,0,0-.1-1.02,2.98125,2.98125,0,0,0-.35-.92,1.8688,1.8688,0,0,0-.63-.65,1.716,1.716,0,0,0-.96-.25,1.68179,1.68179,0,0,0-.95.25,1.98909,1.98909,0,0,0-.63.66,3.26932,3.26932,0,0,0-.36.92,5.05377,5.05377,0,0,0-.11,1.02,5.34976,5.34976,0,0,0,.11,1.05A2.90558,2.90558,0,0,0,74.38,92.23Z"/><path d="M81.45,94.15V88.17c0-.3,0-.6-.01-.89s-.03-.59-.06-.89h1.39l.04,1.34a2.54369,2.54369,0,0,1,2.4-1.49,2.72946,2.72946,0,0,1,1.16.22,1.95683,1.95683,0,0,1,.77.61,2.63941,2.63941,0,0,1,.42.96,5.21775,5.21775,0,0,1,.13,1.23v4.91h-1.5V89.59a6.83512,6.83512,0,0,0-.05-.79,1.75349,1.75349,0,0,0-.21-.68,1.13029,1.13029,0,0,0-.45-.47,1.42508,1.42508,0,0,0-.76-.18,1.5616,1.5616,0,0,0-.87.22,1.69629,1.69629,0,0,0-.56.57,2.494,2.494,0,0,0-.3.79,4.53013,4.53013,0,0,0-.09.91v4.22H81.45Z"/><path d="M95.05,94.15l-.09-1.29a2.35369,2.35369,0,0,1-.95,1.1,2.68067,2.68067,0,0,1-1.38.36,2.71656,2.71656,0,0,1-1.42-.35,2.88014,2.88014,0,0,1-.95-.92,3.75067,3.75067,0,0,1-.53-1.3,6.8493,6.8493,0,0,1-.16-1.51,6.69594,6.69594,0,0,1,.16-1.5,3.97164,3.97164,0,0,1,.53-1.28,2.79147,2.79147,0,0,1,.95-.89,2.84044,2.84044,0,0,1,1.42-.33,2.58061,2.58061,0,0,1,1.34.37,2.17124,2.17124,0,0,1,.91,1.07V82.96h1.48v8.87c0,.43.01.84.02,1.22s.03.75.05,1.11H95.05Zm-3.52-1.98a1.92268,1.92268,0,0,0,.57.69,1.509,1.509,0,0,0,.93.27,1.40218,1.40218,0,0,0,.9-.28,2.22649,2.22649,0,0,0,.59-.7,3.1207,3.1207,0,0,0,.31-.92,5.55894,5.55894,0,0,0,.09-.97,4.60764,4.60764,0,0,0-.1-.96,3.1365,3.1365,0,0,0-.32-.92,1.85749,1.85749,0,0,0-.59-.68,1.45346,1.45346,0,0,0-.9-.26,1.53177,1.53177,0,0,0-.93.26,1.66917,1.66917,0,0,0-.56.67,2.91184,2.91184,0,0,0-.28.92,6.57175,6.57175,0,0,0,.01,1.98A3.13993,3.13993,0,0,0,91.53,92.17Z"/></g></g></svg>